<svg width="378" height="378" viewBox="0 0 378 378" fill="none" xmlns="http://www.w3.org/2000/svg" id="snail">
<g id="snail2">
<g id="layer1">
<g id="snailBody" >
<path id="path4241" d="M323.375 100.59C318.214 101.25 322.709 108.696 318.898 110.468C314.327 111.581 314.975 106.003 314.736 103.197C313.507 98.6801 308.605 103.73 305.946 104.843C294.303 112.881 289.134 126.969 284.319 139.673C278.995 160.356 279.144 182.111 280.726 203.281C283.527 221.37 285.547 240.857 276.334 257.508C269.691 265.333 269.252 277.003 260.666 283.245C253.334 287.086 244.624 283.802 236.742 284.554C225.802 284.387 215.023 286.613 204.764 290.251C195.759 292.439 186.531 288.62 178.748 284.671C165.015 295.116 148.638 302.796 131.15 303.221C117.649 302.216 103.264 300.962 91.887 292.727C86.6243 289.217 79.8811 284.458 73.5157 288.413C64.6314 291.788 62.3933 303.203 53.1585 306.176C50.6964 307.771 44.6017 307.249 45.1755 311.253C51.3485 318.222 61.7458 317.408 70.1332 318.034C94.3421 319.259 118.555 319.505 142.759 320.472C165.323 320.538 187.667 315.632 210.202 317.209C233.381 316.966 256.671 316.651 279.705 313.894C289.295 312.127 298.753 309.32 308.032 306.521C318.82 298.522 323.848 285.273 329.067 273.387C334.385 258.482 334.028 241.8 328.238 227.075C322.46 210.099 315.061 193.102 314.99 174.892C314.27 160.888 315.11 146.773 317.572 132.932C321.196 124.204 327.966 115.973 328.022 106.172C327.631 103.808 325.917 100.971 323.375 100.59Z" fill="#DEAA87"/>
<path id="path4237" d="M329.881 237.087C328.875 240.181 328.301 243.429 327.232 246.53C324.189 256.213 322.269 266.541 316.341 275.018C311.435 282.106 305.364 288.486 299.468 294.805C294.506 299.703 289.786 304.883 284.181 309.086C282.875 310.226 280.886 310.779 280.064 312.37C280.038 314.304 282.374 313.541 283.515 313.289C291.046 311.505 298.281 308.648 305.873 307.087C309.755 306.377 311.916 302.76 314.505 300.17C317.702 296.986 319.736 292.949 321.703 288.948C325.791 280.561 330.416 272.188 331.812 262.831C332.879 256.878 332.34 250.783 332.343 244.77C332.161 242.192 332.25 239.446 331.313 237.039C330.784 236.754 330.395 236.771 329.881 237.087Z" fill="#E5BCA2"/>
<path id="path4231" d="M321.002 100.432C320.039 101.67 320.495 103.607 320.677 105.053C321.787 106.287 323.564 104.82 324.939 104.54C326.296 104.393 326.691 102.605 325.489 101.946C324.218 101.026 322.624 100.068 321.002 100.432Z" fill="#DA9F78"/>
<path id="path4229" d="M312.995 101.738C309.325 102.706 305.991 104.821 303.019 107.147C296.916 112.059 293.495 119.324 289.905 126.095C286.602 132.915 283.938 140.136 282.657 147.621C281.788 149.082 283.453 151.448 284.606 149.498C289.318 140.333 295.15 131.857 301.864 124.071C305.895 119.163 310.278 114.526 314.806 110.049C315.432 108.344 314.333 106.464 314.53 104.643C314.485 103.548 314.597 101.641 312.995 101.738Z" fill="#DA9F78"/>
<path id="path4223" d="M276.693 257.372C275.208 258.102 274.716 260.023 273.594 261.194C271.889 263.398 270.546 265.845 269.889 268.564C268.11 272.915 266.256 277.407 263.237 281.087C260.908 283.741 257.553 285.505 253.969 285.351C247.847 285.565 241.798 283.732 235.646 284.564C226.423 285.407 216.904 285.669 208.24 289.312C201.964 291.979 194.879 291.839 188.579 289.483C185.239 288.417 182.022 286.954 179.236 284.889C177.322 284.434 176.024 286.561 174.544 287.392C158.967 299.342 138.738 305.486 119.188 302.936C110.359 301.599 101.531 299.175 93.7488 294.583C89.6766 292.408 85.9198 289.649 82.1615 286.956C80.0623 286.303 77.8562 287.363 75.777 287.738C72.9925 288.646 69.6825 289.408 67.9547 291.951C68.5261 293.747 70.3999 294.875 71.7304 296.168C78.1621 301.148 86.7645 301.06 94.4385 302.012C101.05 302.645 107.478 304.535 113.755 306.726C121.729 309.286 130.256 308.534 138.424 307.521C146.299 306.299 153.422 302.375 161.216 300.798C167.517 299.435 173.92 297.712 180.427 297.315C186.354 297.447 192.084 299.458 198.015 300.116C205.813 301.137 213.71 301.275 221.564 301.217C227.418 300.734 233.239 299.648 238.912 298.138C244.058 296.478 248.963 293.997 254.379 293.26C258.882 292.188 263.878 292.199 267.966 289.764C271.44 287.148 274.312 283.753 276.81 280.211C279.209 275.629 279.175 270.235 279.281 265.187C279.278 262.622 279.091 259.78 277.617 257.614C277.361 257.409 277.018 257.315 276.693 257.372Z" fill="#DA9F78"/>
</g>
<g id="snailHead">
<path id="path4144" d="M80.0285 287.956C79.492 287.997 78.9434 288.017 78.4125 288.113C77.7086 288.209 77.0274 288.419 76.3427 288.602C75.581 288.832 74.8243 289.088 74.0855 289.384C73.2883 289.68 72.5064 290.016 71.7544 290.413C71.1067 290.757 70.5103 291.19 69.91 291.61C69.4143 291.971 68.9751 292.394 68.5343 292.817C68.0712 293.271 67.6954 293.799 67.295 294.305C66.8279 294.871 66.4445 295.496 66.0341 296.102C65.5617 296.83 65.0539 297.533 64.5442 298.235C64.164 298.836 63.7141 299.387 63.3217 299.979C62.8137 300.709 62.2428 301.391 61.6627 302.064C61.0743 302.712 60.4536 303.325 59.7984 303.905C59.1607 304.473 58.4503 304.951 57.7527 305.442C56.9123 306.009 55.9967 306.454 55.0782 306.878C54.0605 307.323 53.0034 307.666 51.9386 307.978C51.0389 308.269 50.1363 308.549 49.2277 308.811C48.4602 308.993 47.705 309.208 46.951 309.438C46.6446 309.507 46.59 309.632 46.4159 309.782C46.1981 309.998 45.9343 310.222 45.829 310.492C46.0057 310.336 46.0093 309.798 46.0995 310.201C46.2493 310.482 46.4083 310.768 46.6023 311.028C47.0666 311.568 47.5879 312.056 48.1282 312.519C48.7554 313.04 49.4687 313.437 50.1913 313.809C51.1365 314.282 52.1279 314.651 53.1243 314.999C54.2707 315.38 55.4644 315.598 56.6468 315.836C57.8717 316.086 59.1191 316.205 60.3602 316.345C61.5614 316.512 62.7728 316.56 63.9827 316.619C65.3097 316.682 66.6356 316.767 67.9611 316.856C69.2383 316.977 70.5208 316.992 71.8021 317.028C73.2451 317.067 74.6869 317.135 76.128 317.216C77.6816 317.294 79.23 317.451 80.7832 317.531C82.4876 317.633 84.1936 317.661 85.9004 317.683C87.859 317.691 89.8148 317.805 91.7721 317.857C93.9113 317.929 96.0516 317.91 98.1915 317.922C100.4 317.923 102.606 318.027 104.814 318.065C106.931 318.069 109.048 318.142 111.166 318.154C113.351 318.147 115.537 318.18 117.721 318.238C119.972 318.303 122.221 318.42 124.469 318.547C126.62 318.67 128.77 318.824 130.918 318.986C132.968 319.173 135.024 319.26 137.079 319.368C139.214 319.453 141.35 319.498 143.486 319.462C145.657 319.427 147.826 319.347 149.995 319.266C152.089 319.199 154.181 319.078 156.272 318.944C158.438 318.779 160.605 318.617 162.767 318.398C164.932 318.17 167.09 317.883 169.256 317.658C171.294 317.405 173.338 317.209 175.378 316.983C177.361 316.758 179.351 316.604 181.342 316.472C183.048 316.373 184.749 316.205 186.455 316.091C188.011 316.018 189.565 315.923 191.119 315.806C192.57 315.685 194.024 315.618 195.479 315.568C196.876 315.527 198.273 315.527 199.67 315.546C201.019 315.567 202.367 315.621 203.715 315.683C205.051 315.745 206.385 315.834 207.719 315.93C209.054 316.061 210.394 316.087 211.734 316.131C213.143 316.171 214.55 316.24 215.958 316.316C217.243 316.325 218.529 316.366 219.814 316.347C221.212 316.297 222.611 316.323 224.009 316.273C225.446 316.226 226.88 316.145 228.316 316.068C229.902 315.974 231.49 315.892 233.075 315.775C234.822 315.625 236.574 315.579 238.323 315.475C240.158 315.342 241.997 315.319 243.834 315.243C245.742 315.16 247.651 315.117 249.559 315.038C251.437 314.941 253.319 314.946 255.198 314.874C256.861 314.823 258.521 314.718 260.18 314.602C261.694 314.514 263.205 314.405 264.715 314.278C266.176 314.179 267.635 314.075 269.093 313.949C270.419 313.856 271.741 313.731 273.064 313.599C274.263 313.502 275.456 313.371 276.65 313.223C277.803 313.107 278.952 312.97 280.102 312.822C281.156 312.715 282.199 312.527 283.246 312.367C284.094 312.25 284.932 312.064 285.762 311.852C286.581 311.635 287.382 311.356 288.195 311.114C288.92 310.887 289.677 310.727 290.384 310.445C291.193 310.138 292.01 309.858 292.842 309.621C293.482 309.38 294.154 309.231 294.796 309C295.525 308.729 296.267 308.495 297.016 308.288C297.639 308.148 298.243 307.945 298.855 307.767C299.452 307.584 300.066 307.47 300.664 307.292C301.346 307.034 302.081 306.971 302.778 306.78C303.499 306.599 304.225 306.442 304.955 306.3C305.532 306.235 306.084 306.074 306.647 305.937C307.2 305.785 307.765 305.7 308.333 305.626C313.958 305.026 314.805 312.981 309.181 313.58C308.964 313.61 308.75 313.657 308.537 313.71C307.857 313.875 307.18 314.063 306.484 314.152C305.857 314.274 305.233 314.41 304.613 314.566C304.046 314.694 303.47 314.783 302.917 314.968C302.314 315.144 301.701 315.281 301.095 315.446C300.446 315.635 299.804 315.846 299.146 315.999C298.536 316.166 297.935 316.365 297.341 316.584C296.564 316.839 295.778 317.065 295.002 317.323C294.358 317.498 293.737 317.738 293.111 317.966C292.242 318.272 291.358 318.535 290.471 318.784C289.558 319.054 288.66 319.372 287.737 319.604C286.653 319.879 285.558 320.118 284.45 320.276C283.343 320.444 282.24 320.641 281.125 320.756C279.962 320.906 278.799 321.046 277.632 321.162C276.377 321.317 275.122 321.456 273.861 321.559C272.501 321.695 271.142 321.823 269.778 321.92C268.315 322.045 266.852 322.152 265.387 322.25C263.838 322.38 262.289 322.492 260.737 322.583C258.992 322.705 257.247 322.813 255.498 322.868C253.629 322.936 251.758 322.939 249.89 323.031C247.98 323.111 246.07 323.154 244.16 323.236C242.369 323.308 240.576 323.334 238.788 323.462C237.077 323.56 235.364 323.61 233.656 323.754C232.02 323.871 230.381 323.961 228.744 324.057C227.255 324.137 225.767 324.22 224.276 324.268C222.821 324.314 221.365 324.301 219.91 324.346C218.45 324.361 216.989 324.331 215.528 324.304C214.176 324.232 212.824 324.165 211.471 324.126C210.027 324.079 208.581 324.047 207.142 323.909C205.878 323.818 204.614 323.733 203.348 323.674C202.085 323.616 200.822 323.565 199.558 323.545C198.288 323.527 197.018 323.527 195.749 323.564C194.404 323.609 193.06 323.671 191.718 323.783C190.143 323.902 188.567 324 186.988 324.073C185.281 324.187 183.578 324.357 181.869 324.454C179.996 324.578 178.125 324.722 176.26 324.934C174.201 325.163 172.14 325.36 170.085 325.614C167.911 325.84 165.745 326.131 163.571 326.357C161.311 326.585 159.047 326.757 156.782 326.928C154.621 327.066 152.458 327.19 150.293 327.26C148.067 327.343 145.84 327.425 143.612 327.461C141.294 327.496 138.976 327.453 136.66 327.357C134.545 327.246 132.429 327.155 130.319 326.963C128.22 326.805 126.119 326.654 124.017 326.534C121.849 326.412 119.68 326.298 117.508 326.235C115.378 326.178 113.247 326.147 111.116 326.154C108.968 326.139 106.821 326.07 104.672 326.064C102.496 326.024 100.32 325.926 98.1431 325.922C95.9469 325.909 93.7503 325.928 91.5549 325.854C89.6351 325.801 87.7169 325.693 85.7959 325.682C83.9811 325.658 82.167 325.626 80.3547 325.52C78.7943 325.434 77.238 325.288 75.6775 325.203C74.3129 325.126 72.9476 325.062 71.5813 325.025C70.1935 324.986 68.8045 324.965 67.421 324.838C66.145 324.752 64.8686 324.67 63.591 324.609C62.2119 324.542 60.8315 324.479 59.4619 324.294C57.9929 324.128 56.5182 323.978 55.0689 323.679C53.5232 323.368 51.9681 323.065 50.4751 322.548C49.1225 322.072 47.7798 321.56 46.5009 320.907C45.2249 320.238 43.9803 319.503 42.8843 318.56C41.8295 317.638 40.8064 316.665 39.9846 315.523C39.1433 314.25 38.4417 312.894 38.1858 311.371C37.9789 309.735 38.045 308.112 38.8303 306.617C39.4931 305.482 40.2974 304.461 41.3149 303.62C42.306 302.811 43.3822 302.148 44.6192 301.785C45.4111 301.544 46.2047 301.312 47.0114 301.124C47.9129 300.865 48.8066 300.581 49.7006 300.297C50.3861 300.098 51.067 299.883 51.7284 299.613C52.2115 299.391 52.6943 299.164 53.1535 298.896C53.6095 298.575 54.0798 298.27 54.5037 297.908C54.8888 297.569 55.2553 297.216 55.6044 296.84C55.9796 296.405 56.353 295.968 56.6911 295.503C57.1424 294.84 57.6309 294.205 58.0709 293.535C58.5365 292.894 59.0007 292.252 59.4306 291.586C59.9586 290.828 60.4372 290.034 61.0342 289.325C61.6626 288.545 62.2577 287.734 62.9937 287.046C63.7328 286.337 64.4903 285.647 65.3274 285.053C66.2187 284.43 67.1138 283.805 68.0822 283.306C69.0869 282.793 70.1124 282.321 71.1726 281.933C72.1936 281.539 73.2255 281.169 74.2795 280.873C75.2691 280.609 76.2575 280.326 77.2758 280.194C78.0689 280.088 78.8671 280.006 79.6662 279.965C85.3172 279.709 85.6795 287.7 80.0285 287.956Z" fill="#D38D5F"/>
<path id="path4156" d="M307.479 305.965C307.963 305.619 308.383 305.201 308.803 304.783C309.485 304.091 310.14 303.373 310.83 302.689C311.577 301.944 312.315 301.191 313.043 300.427C313.774 299.713 314.43 298.93 315.102 298.161C315.744 297.429 316.307 296.635 316.87 295.843C317.526 294.905 318.078 293.898 318.617 292.89C319.243 291.718 319.879 290.552 320.489 289.371C321.17 287.956 321.891 286.561 322.577 285.148C323.3 283.612 324.036 282.084 324.791 280.563C325.493 279.121 326.161 277.663 326.808 276.195C327.385 274.789 327.931 273.369 328.462 271.945C328.928 270.68 329.387 269.415 329.72 268.108C330.065 266.688 330.338 265.251 330.614 263.816C330.858 262.531 331.112 261.25 331.27 259.951C331.41 258.747 331.54 257.543 331.601 256.331C331.677 255.184 331.686 254.038 331.665 252.889C331.626 251.735 331.668 250.579 331.636 249.425C331.599 248.306 331.572 247.187 331.49 246.07C331.392 244.923 331.324 243.774 331.276 242.624C331.206 241.683 331.112 240.745 330.988 239.809C330.885 238.946 330.705 238.094 330.493 237.252C330.282 236.385 330.078 235.514 329.805 234.664C329.541 233.786 329.242 232.919 328.937 232.055C328.512 230.984 328.14 229.893 327.732 228.816C327.291 227.568 326.794 226.342 326.331 225.103C325.853 223.895 325.414 222.674 324.988 221.448C324.543 220.07 324.025 218.717 323.532 217.355C323.018 215.921 322.468 214.5 321.918 213.079C321.345 211.615 320.784 210.145 320.253 208.665C319.732 207.117 319.212 205.569 318.76 203.999C318.277 202.33 317.767 200.669 317.298 198.996C316.846 197.297 316.379 195.602 315.987 193.886C315.596 192.285 315.244 190.676 314.951 189.054C314.661 187.413 314.49 185.755 314.354 184.095C314.26 182.524 314.169 180.953 314.068 179.382C313.966 177.855 313.9 176.325 313.869 174.794C313.844 173.286 313.772 171.78 313.74 170.273C313.672 168.825 313.58 167.38 313.52 165.932C313.462 164.574 313.442 163.215 313.436 161.856C313.417 160.57 313.497 159.284 313.498 157.998C313.478 156.711 313.471 155.423 313.479 154.136C313.489 152.863 313.528 151.591 313.577 150.319C313.596 149.02 313.724 147.731 313.893 146.444C314.047 145.315 314.208 144.187 314.365 143.058C314.517 141.752 314.782 140.464 315.031 139.174C315.308 137.903 315.658 136.65 315.973 135.388C316.309 134.067 316.773 132.786 317.22 131.5C317.629 130.196 318.191 128.952 318.787 127.724C319.313 126.625 319.807 125.511 320.325 124.408C320.82 123.316 321.38 122.255 321.916 121.182C322.338 120.297 322.738 119.403 323.173 118.523C323.573 117.658 324.042 116.828 324.493 115.988C324.756 115.496 325.009 115 325.279 114.512C328.049 109.58 335.024 113.498 332.254 118.43C331.998 118.865 331.795 119.33 331.543 119.768C331.135 120.53 330.705 121.279 330.346 122.065C329.906 122.955 329.508 123.862 329.074 124.754C328.566 125.77 328.034 126.774 327.566 127.809C327.033 128.943 326.526 130.089 325.983 131.219C325.524 132.163 325.082 133.116 324.777 134.124C324.409 135.184 324.019 136.238 323.735 137.325C323.454 138.448 323.149 139.564 322.886 140.691C322.663 141.843 322.421 142.992 322.289 144.159C322.134 145.268 321.976 146.377 321.824 147.486C321.686 148.529 321.58 149.572 321.571 150.626C321.525 151.812 321.489 152.999 321.479 154.186C321.471 155.468 321.48 156.751 321.498 158.033C321.49 159.297 321.427 160.559 321.436 161.823C321.441 163.083 321.459 164.343 321.513 165.602C321.575 167.102 321.676 168.6 321.738 170.099C321.77 171.611 321.843 173.12 321.867 174.632C321.895 176.046 321.958 177.46 322.052 178.871C322.149 180.397 322.24 181.922 322.328 183.448C322.441 184.85 322.582 186.251 322.825 187.638C323.094 189.14 323.428 190.629 323.788 192.112C324.148 193.7 324.588 195.266 325.002 196.841C325.465 198.498 325.974 200.142 326.451 201.796C326.851 203.201 327.325 204.583 327.785 205.97C328.291 207.388 328.833 208.794 329.381 210.196C329.95 211.67 330.52 213.144 331.054 214.632C331.558 216.025 332.088 217.41 332.544 218.821C332.951 219.99 333.37 221.155 333.826 222.306C334.283 223.535 334.78 224.75 335.215 225.987C335.644 227.126 336.043 228.275 336.487 229.408C336.821 230.364 337.154 231.322 337.445 232.292C337.749 233.288 338.018 234.293 338.253 235.307C338.537 236.447 338.777 237.6 338.92 238.768C339.074 239.937 339.192 241.111 339.269 242.289C339.314 243.357 339.377 244.425 339.469 245.491C339.559 246.738 339.595 247.988 339.634 249.238C339.658 250.407 339.633 251.576 339.664 252.745C339.687 254.076 339.675 255.406 339.59 256.736C339.518 258.137 339.376 259.531 339.21 260.924C339.027 262.401 338.755 263.863 338.47 265.323C338.163 266.925 337.856 268.528 337.465 270.112C337.054 271.685 336.529 273.22 335.957 274.741C335.371 276.312 334.77 277.877 334.127 279.425C333.43 281.002 332.713 282.571 331.956 284.121C331.211 285.621 330.486 287.131 329.772 288.646C329.057 290.117 328.309 291.571 327.597 293.043C326.968 294.26 326.313 295.462 325.667 296.67C324.968 297.972 324.246 299.268 323.391 300.476C322.672 301.489 321.942 302.495 321.122 303.43C320.374 304.28 319.647 305.149 318.837 305.943C318.047 306.772 317.245 307.59 316.434 308.399C315.747 309.062 315.124 309.789 314.442 310.458C313.801 311.094 313.146 311.718 312.419 312.257C307.969 315.75 303.029 309.458 307.479 305.965Z" fill="#D38D5F"/>
<path id="path4160" d="M264.981 262.109C265.369 261.338 265.887 260.647 266.372 259.937C266.947 259.156 267.54 258.388 268.107 257.602C268.721 256.737 269.358 255.888 269.941 255.002C270.553 254.074 271.116 253.12 271.619 252.129C272.161 251 272.625 249.835 273.123 248.686C273.617 247.593 274.041 246.471 274.431 245.336C274.8 244.253 275.018 243.125 275.252 242.007C275.5 240.802 275.719 239.592 275.933 238.38C276.077 237.272 276.174 236.158 276.281 235.046C276.337 233.961 276.356 232.874 276.393 231.788C276.432 230.668 276.394 229.547 276.392 228.427C276.419 227.235 276.41 226.044 276.373 224.852C276.37 223.764 276.27 222.68 276.186 221.596C276.11 220.64 276.085 219.682 275.969 218.73C275.887 217.858 275.749 216.995 275.618 216.13C275.479 215.205 275.335 214.278 275.155 213.36C274.906 212.301 274.773 211.222 274.605 210.149C274.401 208.783 274.245 207.409 274.107 206.035C274.004 204.54 273.837 203.051 273.689 201.56C273.572 200.083 273.448 198.606 273.335 197.128C273.193 195.48 273.205 193.825 273.135 192.174C273.055 190.601 272.982 189.028 272.95 187.454C272.923 185.804 272.954 184.154 273 182.505C272.999 180.927 272.99 179.349 273.006 177.771C272.971 176.128 272.945 174.486 272.954 172.843C272.968 170.981 273.04 169.121 273.13 167.261C273.227 165.197 273.481 163.145 273.717 161.094C273.931 159.247 274.149 157.401 274.366 155.554C274.554 153.723 274.82 151.904 275.116 150.088C275.419 148.301 275.676 146.507 276.008 144.725C276.357 142.69 276.897 140.701 277.449 138.714C278.116 136.33 278.959 134.003 279.798 131.676C280.588 129.479 281.501 127.331 282.497 125.22C283.464 123.181 284.492 121.171 285.549 119.177C286.461 117.436 287.422 115.723 288.428 114.035C289.354 112.492 290.334 110.982 291.336 109.487C292.287 108.104 293.326 106.787 294.441 105.533C295.545 104.297 296.763 103.171 298.019 102.091C299.134 101.119 300.333 100.256 301.559 99.4319C302.838 98.594 304.174 97.8477 305.524 97.1319C306.732 96.5088 307.983 95.9775 309.219 95.4161C310.449 94.8666 311.726 94.4351 313.016 94.0505C314.09 93.728 315.181 93.4726 316.279 93.2484C317.338 93.0697 318.411 93.0166 319.482 92.9749C320.425 92.9646 321.362 93.0797 322.297 93.1843C323.237 93.3275 324.164 93.5498 325.074 93.8199C325.868 94.0665 326.624 94.4028 327.368 94.7691C328.117 95.1645 328.816 95.6445 329.49 96.1551C330.031 96.5319 330.46 97.0351 330.95 97.4691C331.573 98.0365 332.094 98.694 332.566 99.3891C332.949 99.9273 333.287 100.494 333.598 101.076C333.978 101.809 334.248 102.587 334.467 103.381C334.654 104.077 334.767 104.789 334.856 105.504C334.931 106.18 334.967 106.859 334.996 107.539C334.987 108.141 335.045 108.726 335.077 109.325C335.094 110.198 335.033 111.069 334.926 111.934C334.787 112.931 334.544 113.906 334.274 114.874C334.093 115.69 333.767 116.465 333.54 117.266C333.516 117.347 333.492 117.429 333.469 117.51C331.867 122.936 324.194 120.67 325.796 115.245C325.832 115.124 325.868 115.003 325.904 114.882C326.134 114.165 326.393 113.459 326.568 112.725C326.744 112.095 326.917 111.468 327.004 110.818C327.049 110.417 327.077 110.01 327.082 109.605C327.04 109.079 327.002 108.451 327.003 107.877C326.984 107.409 326.962 106.942 326.915 106.476C326.872 106.122 326.826 105.77 326.733 105.425C326.679 105.227 326.622 105.03 326.54 104.841C326.359 104.5 326.163 104.174 325.933 103.862C325.778 103.629 325.823 103.664 325.611 103.427C325.271 103.121 324.947 102.773 324.648 102.523C324.383 102.321 324.108 102.133 323.834 101.946C323.451 101.758 323.088 101.569 322.673 101.451C322.257 101.337 321.829 101.238 321.407 101.135C320.869 101.075 320.33 101.016 319.79 100.969C319.151 100.993 318.512 101.027 317.875 101.088C317.004 101.264 316.139 101.464 315.287 101.721C314.35 101.996 313.421 102.308 312.525 102.701C311.436 103.195 310.336 103.663 309.268 104.202C308.162 104.787 307.068 105.394 306.017 106.074C305.049 106.723 304.099 107.398 303.221 108.168C302.233 109.009 301.281 109.894 300.411 110.858C299.537 111.833 298.731 112.865 297.982 113.939C297.059 115.318 296.153 116.708 295.299 118.132C294.361 119.706 293.466 121.302 292.616 122.926C291.616 124.811 290.645 126.712 289.729 128.64C288.838 130.519 288.029 132.433 287.323 134.39C286.552 136.529 285.771 138.668 285.156 140.859C284.665 142.625 284.176 144.391 283.87 146.201C283.544 147.92 283.311 149.655 283.012 151.378C282.734 153.077 282.484 154.778 282.311 156.492C282.094 158.33 281.878 160.168 281.664 162.006C281.449 163.883 281.211 165.761 281.121 167.649C281.036 169.395 280.967 171.143 280.954 172.891C280.943 174.545 280.978 176.198 281.005 177.852C280.988 179.477 281.003 181.103 280.997 182.728C280.954 184.249 280.924 185.772 280.948 187.294C280.978 188.813 281.053 190.331 281.129 191.849C281.19 193.406 281.186 194.965 281.312 196.519C281.419 197.937 281.54 199.353 281.65 200.771C281.798 202.259 281.964 203.745 282.067 205.237C282.189 206.469 282.33 207.701 282.511 208.927C282.661 209.906 282.783 210.89 283.012 211.855C283.204 212.877 283.374 213.904 283.528 214.932C283.671 215.881 283.819 216.828 283.913 217.783C284.037 218.844 284.091 219.908 284.161 220.973C284.256 222.182 284.361 223.391 284.369 224.604C284.408 225.872 284.421 227.139 284.391 228.407C284.394 229.625 284.435 230.844 284.388 232.061C284.346 233.311 284.33 234.563 284.244 235.811C284.117 237.135 284.005 238.462 283.81 239.778C283.581 241.068 283.348 242.358 283.083 243.641C282.781 245.088 282.481 246.542 281.994 247.941C281.536 249.269 281.04 250.584 280.463 251.866C279.898 253.171 279.374 254.494 278.743 255.769C278.099 257.024 277.389 258.24 276.611 259.418C275.962 260.394 275.272 261.339 274.589 262.29C274.058 263.023 273.513 263.747 272.966 264.468C272.946 264.496 271.936 265.974 272.213 265.528C269.795 270.642 262.563 267.223 264.981 262.109Z" fill="#D38D5F"/>
<path id="path4166" d="M313.992 108.599C313.843 107.904 313.752 107.198 313.677 106.492C313.63 105.68 313.572 104.872 313.5 104.063C313.409 103.096 313.362 102.127 313.339 101.156C313.31 100.029 313.335 98.9042 313.444 97.7814C313.548 96.6074 313.754 95.4497 313.988 94.2958C314.239 93.0057 314.592 91.7386 314.986 90.4856C315.329 89.3177 315.729 88.169 316.133 87.0213C316.542 85.8813 316.982 84.7515 317.441 83.6311C317.887 82.5339 318.397 81.4648 318.887 80.3868C319.434 79.2529 319.997 78.1264 320.586 77.0136C321.158 75.915 321.775 74.8404 322.402 73.7722C322.843 73.0631 323.296 72.3613 323.737 71.6524C326.729 66.8514 333.518 71.082 330.527 75.883C330.122 76.5331 329.71 77.1793 329.299 77.8253C328.727 78.7955 328.169 79.7735 327.648 80.7722C327.132 81.7342 326.654 82.7174 326.17 83.6962C325.719 84.6878 325.248 85.6703 324.837 86.6793C324.426 87.6702 324.042 88.6744 323.677 89.6832C323.303 90.7449 322.932 91.8063 322.616 92.8878C322.306 93.8727 322.024 94.8679 321.829 95.883C321.648 96.7749 321.479 97.6667 321.404 98.5753C321.321 99.3738 321.322 100.174 321.337 100.977C321.354 101.773 321.394 102.568 321.469 103.362C321.537 104.13 321.602 104.898 321.634 105.669C321.678 106.114 321.735 106.558 321.829 106.995C322.963 112.537 315.126 114.141 313.992 108.599Z" fill="#D38D5F"/>
<path id="path4168" d="M302.988 102.457C302.74 101.858 302.542 101.242 302.32 100.635C302.072 99.9217 301.812 99.2144 301.587 98.4935C301.414 97.7969 301.149 97.1304 300.901 96.4585C300.648 95.7866 300.335 95.1405 300.014 94.4994C299.665 93.8953 299.303 93.3014 298.916 92.7214C298.515 92.1017 298.017 91.5538 297.542 90.9914C296.985 90.372 296.4 89.7804 295.835 89.1677C295.321 88.6599 294.801 88.1589 294.286 87.652C294.043 87.4412 293.805 87.2247 293.569 87.0062C289.431 83.1494 294.885 77.2972 299.024 81.1541C299.31 81.4253 299.615 81.6753 299.897 81.9505C300.506 82.5494 301.126 83.1363 301.721 83.749C302.364 84.448 303.038 85.1179 303.66 85.8365C304.326 86.6303 305.013 87.4118 305.574 88.2869C306.142 89.1412 306.678 90.0158 307.167 90.9176C307.62 91.8224 308.052 92.7379 308.405 93.6869C308.702 94.4894 309.011 95.2892 309.226 96.1184C309.41 96.7148 309.629 97.2987 309.834 97.8883C309.991 98.32 310.149 98.7574 310.291 99.1903C312.601 104.354 305.298 107.62 302.988 102.457Z" fill="#D38D5F"/>
<path id="path4174" d="M329.216 77.8767C334.699 78.537 339.701 74.4496 340.388 68.7471C341.075 63.0446 337.186 57.8865 331.703 57.2262C326.22 56.5659 321.218 60.6533 320.531 66.3558C319.845 72.0583 323.733 77.2164 329.216 77.8767Z" fill="#D38D5F"/>
<path id="ellipse4176" d="M293.15 89.6487C298.633 90.309 303.635 86.2216 304.322 80.5191C305.009 74.8166 301.12 69.6585 295.637 68.9982C290.154 68.3379 285.152 72.4253 284.466 78.1278C283.779 83.8303 287.667 88.9884 293.15 89.6487Z" fill="#D38D5F"/>
</g>
<g id="snailShell">
<path id="path4187" d="M158.474 125.329C141.324 123.849 124.213 129.242 108.861 136.471C89.2501 147.546 74.3379 166.011 64.9926 186.295C58.2218 201.095 56.0976 217.672 56.3769 233.805C57.5154 246.171 63.523 257.402 71.6342 266.61C84.0403 282.345 101.622 296.206 122.412 296.899C132.402 298.114 142.531 297.046 151.855 293.155C171.331 287.016 188.363 269.959 189.717 248.87C189.999 233.356 187.604 217.353 180.837 203.282C175.423 194.251 165.322 186.268 154.2 188.754C142.201 190.701 129.903 198.99 127.064 211.335C125.688 215.614 129.139 219.919 127.973 223.962C124.284 226.67 121.242 221.034 121.412 217.821C120.817 209.749 123.28 201.663 129.205 195.96C138.743 185.374 154.74 179.602 168.557 184.655C182.435 190.686 189.721 205.435 192.502 219.557C197.343 238.817 197.095 260.765 184.818 277.325C181.118 281.405 188.096 283.021 191.129 283.822C197.681 285.709 204.621 285.446 210.784 282.45C225.018 277.958 240.167 278.892 254.954 279.463C260.73 278.639 262.093 271.69 264.619 267.4C266.82 264.562 264.684 261.639 261.662 260.798C251.215 256.258 249.204 243.897 248.321 233.88C243.835 209.802 234.873 186.532 222.804 165.251C212.243 148.381 196.456 133.238 176.723 128.266C170.711 126.903 164.608 125.938 158.474 125.329Z" fill="#784421"/>
<path id="path4207" d="M79.7708 273.517C78.115 274.008 79.1542 275.79 80.1225 276.401C88.8883 284.784 99.2939 291.902 111.166 294.948C117.516 296.701 124.098 297.796 130.703 297.328C143.619 297.131 156.211 292.562 167.048 285.705C168.384 285.22 168.003 283.014 166.492 283.385C161.29 285.489 156.003 287.005 150.391 287.645C146.572 288.214 142.723 288.557 138.874 287.883C130.145 286.87 121.353 286.427 112.649 285.219C102.978 283.563 93.9987 279.421 85.0081 275.634C83.2555 275.026 81.6424 273.662 79.7708 273.517Z" fill="#5F361A"/>
<path id="path4193" d="M246.786 234.85C244.803 238.562 244.841 242.998 244.368 247.104C243.932 250.798 244.357 254.618 243.359 258.214C241.638 261.62 237.353 261.972 234.076 262.292C227.371 262.712 220.675 261.043 213.976 261.688C209.961 262.167 206.776 264.796 203.363 266.685C200.261 268.008 196.82 268.107 193.502 267.576C191.781 266.572 190.31 267.636 189.895 269.412C188.267 272.846 186.008 275.932 183.85 279.021C183.474 280.937 185.937 281.483 187.201 282.226C191.164 283.981 195.413 285.472 199.818 285.01C202.08 285.126 204.284 284.859 206.308 283.78C210.781 281.881 215.506 280.484 220.365 280.054C227.272 279.232 234.237 278.395 241.148 278.198C245.998 278.285 251.024 279.852 255.96 279.184C259.697 278.046 261.177 273.944 262.88 270.828C263.852 268.432 265.328 266.038 265.432 263.409C264.903 261.451 262.409 261.703 260.967 260.764C254.596 257.82 251.113 251.015 249.492 244.506C248.819 241.528 248.56 238.451 248.4 235.433C248.264 234.674 247.383 234.518 246.786 234.85Z" fill="#5F361A"/>
<path id="path4197" d="M157.578 188.613C147.517 188.742 137.757 193.862 131.665 201.831C128.712 205.296 126.974 209.683 126.839 214.238C126.487 215.434 127.616 217.146 128.867 216.111C131.122 213.317 133.483 210.603 136.257 208.248C143.225 201.913 153.528 200.678 162.4 202.675C167.267 203.885 171.2 207.189 174.414 210.9C178.315 215.363 182.492 219.625 185.315 224.868C186.59 226.03 187.803 224.083 187.194 222.903C185.376 215.267 183.698 207.284 179.191 200.702C175.735 196.177 171.373 192.089 166.098 189.801C163.406 188.729 160.44 188.621 157.578 188.613Z" fill="#5F361A"/>
<path id="path4211" d="M54.9786 203.668C55.0694 203.217 55.2099 202.776 55.3547 202.34C55.6454 201.469 55.9718 200.611 56.2888 199.749C56.7719 198.403 57.3015 197.074 57.8442 195.751C58.5166 194.083 59.3232 192.476 60.168 190.89C61.1657 189.054 62.2266 187.254 63.3115 185.469C64.4621 183.587 65.7091 181.767 67.0042 179.982C68.3952 178.092 69.926 176.311 71.4745 174.55C73.2111 172.587 75.0631 170.731 76.9554 168.919C78.8959 167.072 80.916 165.312 82.9356 163.552C84.917 161.84 86.9264 160.161 88.9468 158.495C90.9117 156.877 92.9301 155.326 94.968 153.802C96.9512 152.325 98.9924 150.929 101.039 149.542C103.051 148.19 105.116 146.921 107.195 145.676C109.171 144.501 111.169 143.364 113.193 142.274C115.167 141.217 117.17 140.214 119.184 139.237C121.079 138.318 123 137.456 124.923 136.596C126.773 135.767 128.643 134.984 130.518 134.212C132.227 133.497 133.956 132.835 135.692 132.19C137.213 131.621 138.746 131.083 140.273 130.53C141.608 130.046 142.954 129.593 144.307 129.163C145.562 128.765 146.834 128.428 148.107 128.098C149.296 127.796 150.489 127.513 151.682 127.23C152.816 126.965 153.951 126.701 155.084 126.429C156.242 126.148 157.411 125.919 158.583 125.711C159.731 125.512 160.886 125.361 162.039 125.2C163.171 125.041 164.308 124.912 165.445 124.791C166.463 124.684 167.483 124.594 168.504 124.511C169.387 124.452 170.267 124.365 171.148 124.28C171.542 124.236 171.937 124.213 172.333 124.188C174.234 124.071 174.399 126.76 172.498 126.877C172.134 126.899 171.77 126.92 171.408 126.961C170.513 127.048 169.618 127.136 168.721 127.196C167.723 127.277 166.725 127.365 165.729 127.47C164.621 127.587 163.514 127.713 162.411 127.868C161.291 128.024 160.168 128.171 159.053 128.364C157.933 128.562 156.817 128.781 155.711 129.049C154.576 129.321 153.44 129.586 152.303 129.851C151.129 130.13 149.954 130.408 148.784 130.705C147.557 131.024 146.331 131.347 145.123 131.73C143.803 132.149 142.49 132.591 141.189 133.063C139.669 133.613 138.144 134.149 136.631 134.715C134.924 135.349 133.224 136 131.544 136.703C129.694 137.465 127.848 138.237 126.022 139.056C124.125 139.903 122.23 140.754 120.36 141.66C118.38 142.621 116.411 143.607 114.471 144.645C112.483 145.716 110.52 146.833 108.579 147.987C106.543 149.206 104.52 150.448 102.55 151.772C100.538 153.135 98.5312 154.508 96.5814 155.959C94.5774 157.458 92.5926 158.983 90.6605 160.574C88.6589 162.224 86.6681 163.887 84.705 165.583C82.7172 167.315 80.7284 169.047 78.8182 170.865C76.9811 172.623 75.1833 174.424 73.4973 176.329C72.0039 178.027 70.5267 179.743 69.1842 181.564C67.9315 183.289 66.7263 185.049 65.6134 186.868C64.5545 188.61 63.5195 190.366 62.5452 192.157C61.7422 193.663 60.9748 195.189 60.3364 196.773C59.8061 198.066 59.2885 199.364 58.8168 200.679C58.509 201.515 58.1922 202.348 57.9097 203.193C57.8078 203.496 57.7137 203.801 57.6357 204.111C57.3226 205.99 54.6655 205.547 54.9786 203.668Z" fill="#5F361A"/>
<path id="path4213" d="M150.606 125.242C139.552 125.608 128.718 128.486 118.345 132.169C107.479 136.119 97.805 142.885 89.7918 151.166C83.8208 156.924 78.2008 163.155 73.8667 170.252C73.2078 171.523 75.0942 172.48 75.8802 171.378C87.559 160.24 100.331 150.096 114.725 142.678C125.49 137.092 136.775 132.401 148.461 129.051C151.062 128.205 153.949 128.034 156.365 126.79C157.055 124.578 154.064 125.197 152.762 125.191C152.043 125.208 151.325 125.225 150.606 125.242Z" fill="#5F361A"/>
<path id="path4219" d="M171.269 183.301C169.721 183.403 170.036 185.415 171.248 185.835C176.859 190.021 181.943 195.192 184.735 201.711C188.368 210.086 190.409 219.008 191.837 227.973C192.721 233.513 192.773 239.156 193.266 244.76C194.042 246.244 195.599 244.914 195.738 243.735C198.953 236.683 201.585 228.87 200.099 221.035C199.463 216.007 198.19 211.039 195.723 206.579C192.538 200.439 189.276 194.126 184.354 189.174C180.805 185.857 175.973 184.121 171.269 183.301Z" fill="#5F361A"/>
<path id="path4138" d="M122.581 224.31C121.932 223.526 121.52 222.59 121.118 221.664C120.593 220.375 120.313 219.011 120.101 217.641C119.896 216.138 119.862 214.623 119.895 213.109C119.922 211.368 120.195 209.654 120.597 207.965C121.082 206.061 121.851 204.251 122.74 202.505C123.7 200.671 124.866 198.964 126.141 197.336C127.554 195.564 129.154 193.955 130.805 192.406C132.438 190.858 134.22 189.48 136.062 188.193C137.971 186.873 140.062 185.879 142.183 184.956C144.27 184.049 146.41 183.283 148.595 182.653C150.802 182.051 153.077 181.768 155.353 181.609C157.574 181.476 159.799 181.519 162.017 181.682C164.171 181.878 166.267 182.391 168.303 183.103C170.099 183.796 171.81 184.688 173.453 185.685C175.117 186.73 176.62 188.003 178.128 189.255C179.819 190.692 181.409 192.234 182.885 193.89C184.42 195.677 185.719 197.647 186.892 199.684C187.985 201.667 188.919 203.731 189.753 205.835C190.462 207.788 191.071 209.777 191.671 211.767C192.282 213.845 192.813 215.946 193.344 218.046C193.913 220.304 194.419 222.578 194.873 224.862C195.361 227.388 195.676 229.942 195.96 232.497C196.267 235.221 196.434 237.958 196.561 240.696C196.71 243.373 196.763 246.05 196.719 248.73C196.688 251.688 196.083 254.582 195.378 257.44C194.704 260.093 193.825 262.685 192.845 265.239C191.898 267.676 190.734 270.017 189.507 272.322C188.239 274.684 186.668 276.855 185.018 278.96C183.383 281.077 181.528 283.007 179.59 284.845C177.616 286.689 175.472 288.327 173.299 289.926C171.17 291.471 168.954 292.888 166.673 294.197C164.365 295.501 161.963 296.625 159.546 297.711C156.775 298.984 153.914 300.037 151.015 300.977C148.083 301.947 145.073 302.623 142.052 303.243C139.053 303.82 136.016 304.153 132.971 304.368C129.882 304.617 126.787 304.566 123.698 304.352C120.343 304.106 117.03 303.508 113.738 302.842C110.375 302.155 107.08 301.203 103.834 300.096C100.635 299.018 97.6035 297.535 94.6218 295.967C91.61 294.308 88.7601 292.38 85.9378 290.423C82.9574 288.351 80.1863 286.008 77.4929 283.581C74.7019 281.032 72.1752 278.217 69.6906 275.375C67.411 272.68 65.1686 269.953 62.9844 267.18C60.9163 264.552 58.9689 261.84 57.2457 258.973C55.4824 256.057 54.1851 252.904 53.0173 249.712C51.8582 246.453 51.0373 243.09 50.3271 239.709C49.6034 236.185 49.3532 232.591 49.2624 229.003C49.1643 225.328 49.3458 221.658 49.6683 217.999C50.0278 214.211 50.5932 210.446 51.2956 206.708C52.0737 202.729 53.1491 198.819 54.3379 194.946C55.612 190.855 57.1862 186.873 58.8861 182.943C60.7121 178.77 62.9061 174.775 65.1809 170.834C67.4774 166.814 70.1166 163.01 72.8874 159.306C75.8435 155.411 79.1794 151.831 82.5598 148.307C85.8637 144.887 89.3864 141.691 93.0469 138.66C96.5718 135.725 100.433 133.246 104.375 130.918C108.314 128.6 112.524 126.817 116.786 125.193C121.294 123.529 125.935 122.275 130.59 121.1C135.025 120.008 139.522 119.203 144.042 118.569C148.251 118.026 152.494 118.023 156.726 118.165C160.733 118.351 164.724 118.775 168.693 119.346C172.245 119.901 175.751 120.705 179.218 121.651C182.386 122.534 185.461 123.699 188.492 124.965C191.277 126.173 193.937 127.641 196.569 129.148C198.994 130.552 201.323 132.116 203.589 133.762C205.647 135.274 207.573 136.956 209.505 138.624C211.376 140.207 213.185 141.859 214.968 143.539C216.757 145.166 218.369 146.969 219.948 148.795C221.495 150.629 222.908 152.57 224.286 154.531C225.734 156.501 226.981 158.602 228.231 160.698C229.488 162.876 230.713 165.072 231.935 167.269C233.263 169.664 234.489 172.115 235.69 174.576C236.915 177.182 238.11 179.803 239.279 182.435C240.473 185.128 241.607 187.846 242.691 190.585C243.75 193.269 244.716 195.989 245.681 198.708C246.56 201.156 247.458 203.597 248.345 206.043C249.17 208.372 249.919 210.729 250.64 213.093C251.319 215.27 251.979 217.452 252.569 219.654C253.153 221.684 253.629 223.741 254.096 225.8C254.554 227.804 254.81 229.843 255.087 231.877C255.34 233.782 255.473 235.7 255.603 237.616C255.658 239.213 255.87 240.795 256.143 242.367C256.408 243.809 256.955 245.165 257.488 246.522C258.002 247.931 258.731 249.239 259.498 250.522C260.111 251.508 260.883 252.381 261.725 253.175C262.411 253.824 263.283 254.174 264.144 254.528C265.081 254.932 266.054 255.23 267.041 255.482C268.856 255.893 270.223 256.925 271.33 258.387C272.258 259.907 272.516 261.612 272.546 263.359C272.537 265.163 272.026 266.898 271.438 268.586C270.827 270.275 270.096 271.914 269.367 273.554C268.681 275.176 267.849 276.727 266.989 278.262C266.19 279.677 265.194 280.953 264.1 282.148C263.08 283.235 261.898 284.132 260.617 284.886C259.307 285.598 257.877 286.009 256.419 286.276C255.003 286.518 253.566 286.465 252.139 286.384C250.743 286.321 249.356 286.147 247.97 285.98C246.639 285.785 245.3 285.663 243.969 285.476C242.821 285.296 241.671 285.195 240.511 285.17C238.952 285.19 237.405 285.42 235.855 285.565C234.107 285.714 232.357 285.838 230.607 285.959C229.107 286.066 227.607 286.188 226.113 286.361C224.34 286.591 222.568 286.83 220.796 287.069C219.276 287.263 217.758 287.488 216.254 287.783C214.989 287.969 213.796 288.413 212.602 288.845C211.322 289.318 210.067 289.854 208.797 290.352C207.573 290.835 206.341 291.276 205.064 291.597C203.78 291.89 202.466 291.993 201.16 292.133C200.03 292.234 198.897 292.285 197.762 292.271C196.666 292.216 195.574 292.076 194.492 291.89C193.626 291.717 192.76 291.545 191.898 291.351C190.969 291.129 190.065 290.82 189.158 290.523C188.295 290.243 187.456 289.894 186.604 289.582C185.807 289.3 185.02 288.993 184.24 288.669C183.424 288.321 182.628 287.938 181.862 287.491C181.218 287.08 180.618 286.603 180.021 286.128C179.944 286.066 179.867 286.004 179.789 285.942C175.375 282.404 180.379 276.162 184.793 279.7C184.864 279.756 184.935 279.814 185.006 279.871C185.347 280.143 185.689 280.413 186.042 280.67C186.364 280.858 186.899 281.095 187.31 281.281C187.986 281.563 188.667 281.828 189.358 282.071C190.125 282.352 190.88 282.663 191.655 282.923C192.32 283.142 192.985 283.369 193.663 283.548C194.402 283.715 195.145 283.861 195.887 284.012C196.545 284.135 197.212 284.204 197.877 284.271C198.688 284.286 199.498 284.242 200.308 284.178C201.255 284.077 202.207 284.006 203.145 283.83C204.089 283.606 204.982 283.24 205.889 282.899C207.222 282.382 208.534 281.81 209.879 281.323C211.463 280.749 213.058 280.196 214.728 279.93C216.385 279.61 218.053 279.351 219.728 279.14C221.552 278.895 223.375 278.648 225.2 278.413C226.815 278.229 228.434 278.092 230.055 277.978C231.742 277.861 233.428 277.742 235.113 277.599C236.971 277.427 238.825 277.148 240.696 277.172C242.171 277.209 243.636 277.33 245.094 277.556C246.368 277.74 247.652 277.843 248.925 278.037C250.147 278.184 251.37 278.343 252.602 278.397C253.424 278.445 254.255 278.51 255.074 278.388C255.62 278.316 256.151 278.15 256.657 277.934C257.249 277.644 257.734 277.176 258.212 276.731C258.891 275.998 259.514 275.221 260.011 274.349C260.75 273.031 261.472 271.701 262.057 270.305C262.7 268.857 263.351 267.413 263.894 265.922C264.188 265.108 264.485 264.271 264.546 263.402C264.553 263.195 264.397 262.285 264.71 262.877C264.931 263.098 265.838 263.576 265.051 263.229C263.69 262.878 262.349 262.459 261.054 261.906C259.287 261.158 257.566 260.294 256.177 258.938C254.837 257.634 253.594 256.226 252.626 254.617C251.64 252.959 250.716 251.262 250.043 249.448C249.31 247.584 248.605 245.703 248.258 243.72C247.944 241.878 247.692 240.026 247.622 238.156C247.505 236.42 247.385 234.682 247.16 232.956C246.915 231.154 246.696 229.346 246.295 227.57C245.85 225.611 245.399 223.654 244.842 221.723C244.276 219.608 243.638 217.514 242.988 215.424C242.308 213.192 241.601 210.968 240.824 208.769C239.931 206.306 239.027 203.848 238.142 201.382C237.209 198.753 236.276 196.123 235.252 193.527C234.209 190.89 233.117 188.274 231.968 185.682C230.838 183.137 229.682 180.604 228.5 178.083C227.362 175.75 226.202 173.427 224.944 171.156C223.761 169.029 222.573 166.903 221.359 164.793C220.21 162.866 219.072 160.931 217.737 159.124C216.516 157.382 215.263 155.66 213.898 154.027C212.496 152.406 211.072 150.799 209.48 149.359C207.782 147.759 206.06 146.185 204.278 144.679C202.513 143.155 200.758 141.615 198.881 140.229C196.854 138.749 194.763 137.351 192.592 136.089C190.248 134.745 187.882 133.43 185.404 132.344C182.692 131.207 179.942 130.161 177.107 129.367C173.959 128.503 170.775 127.775 167.549 127.263C163.87 126.729 160.17 126.34 156.456 126.159C152.684 126.03 148.902 126.018 145.15 126.491C140.914 127.081 136.701 127.837 132.546 128.856C128.191 129.953 123.848 131.12 119.629 132.669C115.788 134.127 111.99 135.724 108.439 137.807C104.857 139.916 101.347 142.16 98.1452 144.823C94.7172 147.654 91.4262 150.649 88.3322 153.844C85.1757 157.133 82.0556 160.469 79.2906 164.1C76.7067 167.547 74.2481 171.09 72.1086 174.833C69.9856 178.508 67.934 182.231 66.2273 186.121C64.6418 189.779 63.1741 193.486 61.9849 197.294C60.8815 200.882 59.8818 204.503 59.1568 208.189C58.4976 211.67 57.977 215.178 57.6368 218.705C57.3366 222.064 57.171 225.434 57.2598 228.808C57.3307 231.911 57.5404 235.02 58.1572 238.069C58.7844 241.077 59.5103 244.069 60.5329 246.97C61.5203 249.689 62.6118 252.379 64.1094 254.863C65.6469 257.444 67.4206 259.864 69.2697 262.23C71.3685 264.897 73.5262 267.516 75.7147 270.11C77.9899 272.715 80.2994 275.3 82.8518 277.64C85.2898 279.843 87.7986 281.969 90.498 283.849C93.0527 285.622 95.6293 287.373 98.3489 288.887C100.963 290.265 103.616 291.578 106.422 292.526C109.34 293.526 112.303 294.379 115.327 295C118.28 295.6 121.25 296.146 124.26 296.371C126.975 296.566 129.696 296.606 132.413 296.387C135.105 296.201 137.791 295.907 140.444 295.406C143.176 294.846 145.901 294.244 148.552 293.365C151.175 292.518 153.763 291.565 156.27 290.412C158.448 289.434 160.615 288.425 162.698 287.254C164.716 286.101 166.672 284.843 168.557 283.481C170.466 282.077 172.357 280.648 174.094 279.031C175.751 277.47 177.331 275.823 178.725 274.02C180.088 272.286 181.396 270.505 182.447 268.559C183.523 266.544 184.545 264.499 185.378 262.369C186.241 260.125 187.016 257.847 187.613 255.515C188.18 253.244 188.691 250.947 188.72 248.594C188.764 246.082 188.71 243.574 188.57 241.065C188.451 238.499 188.296 235.933 188.009 233.38C187.75 231.049 187.467 228.719 187.025 226.415C186.602 224.267 186.12 222.131 185.589 220.008C185.087 218.023 184.586 216.038 184.01 214.073C183.476 212.298 182.931 210.524 182.314 208.776C181.625 207.027 180.849 205.313 179.951 203.661C179.059 202.093 178.063 200.581 176.9 199.198C175.701 197.837 174.39 196.59 173.014 195.407C171.801 194.398 170.597 193.364 169.271 192.504C168.114 191.781 166.888 191.167 165.629 190.641C164.268 190.147 162.859 189.813 161.417 189.658C159.576 189.516 157.729 189.487 155.885 189.59C154.172 189.697 152.461 189.912 150.798 190.342C148.946 190.868 147.14 191.529 145.372 192.291C143.735 193.001 142.11 193.745 140.632 194.758C139.101 195.819 137.626 196.965 136.271 198.245C134.91 199.515 133.592 200.836 132.423 202.288C131.452 203.507 130.581 204.798 129.848 206.176C129.228 207.347 128.72 208.578 128.369 209.857C128.084 210.982 127.915 212.126 127.893 213.288C127.868 214.341 127.878 215.392 128.01 216.439C128.113 217.137 128.236 217.833 128.466 218.502C128.599 218.817 128.708 219.162 128.869 219.363C132.366 223.81 126.078 228.755 122.581 224.309L122.581 224.31Z" fill="#502D16"/>
</g>
</g>
</g>
</svg>
